<?xml version="1.0" encoding="UTF-8"?>
<svg width="70px" height="60px" viewBox="0 0 70 60" version="1.1" xmlns="http://www.w3.org/2000/svg" xmlns:xlink="http://www.w3.org/1999/xlink">
    <!-- Generator: Sketch 52.1 (67048) - http://www.bohemiancoding.com/sketch -->
    <title>Group 6</title>
    <desc>Created with Sketch.</desc>
    <defs>
        <polygon id="path-1" points="5.80912863e-05 0.0583333333 69.8954357 0.0583333333 69.8954357 59.7916667 5.80912863e-05 59.7916667"></polygon>
    </defs>
    <g id="Page-1" stroke="none" stroke-width="1" fill="none" fill-rule="evenodd">
        <g id="1-copy-2" transform="translate(-600.000000, -1229.000000)">
            <g id="Group-6" transform="translate(600.000000, 1229.000000)">
                <path d="M53.9584045,32.8125 C55.9719761,32.8125 57.6041667,34.4448649 57.6041667,36.4584757 C57.6041667,38.4719442 55.9719761,40.1041667 53.9584045,40.1041667 C51.944833,40.1041667 50.3125,38.4719442 50.3125,36.4584757 C50.3125,34.4448649 51.944833,32.8125 53.9584045,32.8125" id="Fill-1" fill="#589F39"></path>
                <g id="Group-5">
                    <mask id="mask-2" fill="white">
                        <use xlink:href="#path-1"></use>
                    </mask>
                    <g id="Clip-4"></g>
                    <path d="M64.6905145,41.8716083 L52.4216349,41.8716083 C49.3728589,41.8716083 46.8447261,39.3330875 46.8447261,36.2717542 C46.8447261,33.210275 49.3728589,30.6716083 52.4216349,30.6716083 L64.6905145,30.6716083 L64.6905145,41.8716083 Z M39.6400996,44.2985667 L30.8016556,39.2135042 L23.6986888,48.9299417 L17.8104108,45.61865 L25.5117178,36.1841083 L17.0931286,31.1341917 L41.0396639,20.9496292 L39.6400996,44.2985667 Z M5.20489212,9.16775417 C5.20489212,7.002275 6.98960166,5.2850875 9.07144813,5.2850875 L48.6292905,5.2850875 C50.4883568,5.2850875 51.9753485,6.778275 51.9753485,8.6450875 L51.9753485,13.1249417 L9.07144813,13.1249417 C6.98960166,13.1249417 5.20489212,11.3329417 5.20489212,9.16775417 Z M65.0622988,25.4449417 L64.6905145,25.4449417 L64.6905145,21.7116083 C64.6905145,17.3809417 61.4930249,13.7969417 57.2548299,13.1997542 L57.2548299,8.6450875 C57.2548299,3.94094167 53.3882739,0.058275 48.7037925,0.058275 L9.07144813,0.058275 C4.16389627,0.058275 0.0744149378,4.01575417 5.80912863e-05,9.018275 L5.80912863e-05,51.2049417 C5.80912863e-05,55.9090875 3.86661411,59.7917542 8.55095021,59.7917542 L56.139332,59.7917542 C60.8239585,59.7917542 64.6905145,55.9090875 64.6905145,51.2049417 L64.6905145,47.0984208 L65.0622988,47.0984208 C67.739,47.0984208 69.8954938,44.9329417 69.8954938,42.2450875 L69.8954938,30.2984208 C69.8954938,27.610275 67.739,25.4449417 65.0622988,25.4449417 Z" id="Fill-3" fill="#589F39" mask="url(#mask-2)"></path>
                </g>
            </g>
        </g>
    </g>
</svg>